<svg id="Layer_1" data-name="Layer 1" xmlns="http://www.w3.org/2000/svg" width="200" height="200" viewBox="0 0 200 200">
  <rect width="200" height="200" style="fill: #050321"/>
  <rect x="293.8" y="307" width="12.5" height="12.5" transform="translate(-333.6 103.9) rotate(-45)" style="fill: #ffcb00"/>
  <rect x="244.2" y="307" width="12.5" height="12.5" transform="translate(-348.1 68.9) rotate(-45)" style="fill: #ffcb00"/>
  <g>
    <path d="M355.5,261.8v11.3h-4.4v-2.3h-2.3v-2.2h-2.2v-2.3h-2.3v6.8h-2.2V261.8h4.5v2.3h2.2v2.2h2.3v2.3h2.2v-6.8Z" transform="translate(-200 -200)" style="fill: #ffcb00"/>
    <path d="M355.5,279.8v9h-2.2V291h-9v-2.2h-2.2v-9h2.2v-2.3h9v2.3Zm-2.2,2.2h-9v4.5h9Z" transform="translate(-200 -200)" style="fill: #ffcb00"/>
    <path d="M355.5,297.7v9h-2.2v-4.5h-2.2V300h-9v-4.5h11.2v2.2Z" transform="translate(-200 -200)" style="fill: #ffcb00"/>
    <path d="M357.8,316.9v4.5H342.1V310.2h2.2V308h6.8v2.2h2.2v6.7Zm-6.7-4.4h-6.8v4.4h6.8Z" transform="translate(-200 -200)" style="fill: #ffcb00"/>
  </g>
  <g>
    <path d="M264,261.7h21.9v65.7h21.9v10.9H242.1V327.4H264V283.6H242.1v-11H264Z" transform="translate(-200 -200)" style="fill: #ffcb00"/>
    <path d="M314.5,261.7h21.9v65.7h22v10.9H292.6V327.4h21.9V283.6H292.6v-11h21.9Z" transform="translate(-200 -200)" style="fill: #ffcb00"/>
  </g>
</svg>
